<svg width="64" height="64" xmlns="http://www.w3.org/2000/svg">

 <g>
  <title>background</title>
  <rect fill="none" id="canvas_background" height="402" width="582" y="-1" x="-1"/>
 </g>
 <g>
  <title>Layer 1</title>
  <path id="svg_2" fill="#fdef84" d="m28.327,26.14c-0.96,2.515 -1.904,4.745 -2.67,7.035c-2.446,7.317 -4.981,14.61 -7.173,22.004c-1.268,4.276 0.522,7.165 4.284,7.692c1.369,0.192 2.85,0.185 4.191,-0.121c8.269,-1.883 11.943,-8.577 15.717,-15.137c-0.81,0.59 -1.46,1.343 -2.147,2.059c-2.118,2.209 -4.473,4.097 -7.41,5.099c-0.479,0.163 -1.193,0.088 -1.602,-0.178c-0.217,-0.141 -0.099,-0.952 0.023,-1.421c0.161,-0.621 0.475,-1.203 0.722,-1.802c3.216,-7.789 6.473,-15.562 9.607,-23.384c0.543,-1.356 0.9,-2.954 0.757,-4.381c-0.262,-2.605 -3.004,-4.446 -6.364,-4.375c-8.721,0.186 -15.007,4.511 -19.482,11.77c-0.165,0.268 -0.166,0.636 -0.317,1.267c3.724,-2.746 6.802,-6.072 11.864,-6.127z"/>
  <circle id="svg_3" r="8.214" fill="#fdef84" cy="9.214" cx="39.323"/>
 </g>
</svg>