<svg width="70" height="70" xmlns="http://www.w3.org/2000/svg">

 <g>
  <title>background</title>
  <rect fill="none" id="canvas_background" height="402" width="582" y="-1" x="-1"/>
 </g>
 <g>
  <title>Layer 1</title>
  <path id="svg_2" fill="#15bac4" d="m11,39l-4,0c-1.10457,0 -2,-0.89543 -2,-2l0,-6c0,-1.10457 0.89543,-2 2,-2l4,0l0,10z"/>
  <path id="svg_3" fill="#15bac4" d="m23.21171,43l3.64203,13.59229c0.28588,1.06694 -0.3473,2.16362 -1.41424,2.44949l-1.93188,0.51763c-1.06693,0.28587 -2.16359,-0.3473 -2.44947,-1.41422l-4.05815,-15.14519l6.21171,0z"/>
  <path id="svg_4" fill="#15bac4" d="m30,43l-17,0c-1.10457,0 -2,-0.89543 -2,-2l0,-14c0,-1.10457 0.89543,-2 2,-2l17,0c19.43748,0 32,-13 32,-13l3,0l0,44l-3,0c0,0 -12.56252,-13 -32,-13z"/>
 </g>
</svg>