<svg width="32" height="32" xmlns="http://www.w3.org/2000/svg">

 <g>
  <title>background</title>
  <rect fill="none" id="canvas_background" height="34" width="34" y="-1" x="-1"/>
 </g>
 <g>
  <title>Layer 1</title>
  <path stroke="null" fill="#565656" id="svg_3" d="m21.239444,18.093626c0.578813,0 1.058647,0.286179 1.476082,0.852082c0.413131,0.570206 0.632606,1.265213 0.632606,2.097929c0,0.828413 -0.219476,1.529875 -0.632606,2.093626c-0.415282,0.570206 -0.897268,0.852082 -1.476082,0.852082c-0.598179,0 -1.123199,-0.281876 -1.538482,-0.852082c-0.413131,-0.563751 -0.632606,-1.265213 -0.632606,-2.093626c0,-0.832717 0.219476,-1.527723 0.632606,-2.097929c0.413131,-0.568055 0.938151,-0.852082 1.538482,-0.852082m7.401925,-7.65798c1.605185,1.745047 2.420688,3.862342 2.420688,6.354036c0,1.609488 -0.185048,3.061901 -0.557296,4.352935c-0.376551,1.284578 -0.847779,2.332467 -1.407226,3.139363c-0.568055,0.809048 -1.265213,1.516964 -2.095778,2.128054c-0.830565,0.615393 -1.594426,1.058647 -2.291584,1.340523c-0.69931,0.284027 -1.495447,0.501351 -2.390564,0.658427c-0.897268,0.152772 -1.562151,0.238841 -2.029074,0.264662c-0.458317,0.019366 -0.942454,0.030124 -1.47393,0.030124c-0.118345,0 -0.522869,0.008607 -1.176992,0.032276c-0.647668,0.027972 -1.204965,0.034428 -1.639613,0.034428s-0.991944,-0.006455 -1.639613,-0.034428c-0.654124,-0.023669 -1.058647,-0.032276 -1.176992,-0.032276c-0.529324,0 -1.015613,-0.010759 -1.47393,-0.030124c-0.469075,-0.025821 -1.131806,-0.11189 -2.029074,-0.264662c-0.910179,-0.154924 -1.691254,-0.3744 -2.390564,-0.658427c-0.697158,-0.281876 -1.463171,-0.72513 -2.289433,-1.340523c-0.832717,-0.611089 -1.529875,-1.319006 -2.097929,-2.128054c-0.5616,-0.806896 -1.030675,-1.854785 -1.407226,-3.139363c-0.372248,-1.291033 -0.557296,-2.743446 -0.557296,-4.352935c0,-2.491695 0.815503,-4.611141 2.420688,-6.354036c-0.176441,-0.088221 -0.182896,-0.96182 -0.017214,-2.618646c0.135559,-1.658978 0.488441,-3.188853 1.065103,-4.587472c2.009709,0.213021 4.4971,1.353433 7.468629,3.401873c1.002703,-0.256055 2.369046,-0.393765 4.124852,-0.393765c1.833268,0 3.208218,0.13771 4.127004,0.395917c1.353433,-0.914482 2.646619,-1.658978 3.883859,-2.224881c1.256606,-0.5616 2.162481,-0.895117 2.730536,-0.983337l0.852082,-0.193655c0.580965,1.396468 0.933848,2.926343 1.067254,4.587472c0.163531,1.654675 0.157076,2.528274 -0.019366,2.616495m-12.576818,16.82647c3.632108,0 6.356188,-0.434648 8.221732,-1.306096c1.839723,-0.869296 2.780025,-2.663832 2.780025,-5.370699c0,-1.570757 -0.58742,-2.883308 -1.768716,-3.933349c-0.598179,-0.565903 -1.319006,-0.914482 -2.128054,-1.045737c-0.806896,-0.131255 -2.041985,-0.131255 -3.700963,0c-1.654675,0.133407 -2.792936,0.193655 -3.404025,0.193655c-0.828413,0 -1.721378,-0.038731 -2.838122,-0.126952c-1.118896,-0.086069 -1.996798,-0.139862 -2.631557,-0.167834c-0.632606,-0.019366 -1.310399,0.058097 -2.06135,0.232386c-0.742344,0.176441 -1.353433,0.481986 -1.835419,0.914482c-1.121047,1.009158 -1.699861,2.317405 -1.699861,3.933349c0,2.706867 0.916634,4.501403 2.754205,5.370699c1.828964,0.871448 4.54659,1.306096 8.180849,1.306096l0.131255,0m-5.237292,-9.168489c0.576662,0 1.058647,0.286179 1.47393,0.852082c0.413131,0.570206 0.632606,1.265213 0.632606,2.097929c0,0.828413 -0.219476,1.529875 -0.632606,2.093626c-0.413131,0.570206 -0.897268,0.852082 -1.47393,0.852082c-0.600331,0 -1.123199,-0.281876 -1.540633,-0.852082c-0.413131,-0.563751 -0.632606,-1.265213 -0.632606,-2.093626c0,-0.832717 0.219476,-1.527723 0.632606,-2.097929c0.415282,-0.568055 0.938151,-0.852082 1.540633,-0.852082"/>
 </g>
</svg>