<svg width="193" height="60" viewBox="0 0 193 60" fill="none" xmlns="http://www.w3.org/2000/svg">
<path d="M176.143 29.6663L127.834 29.6663" stroke="black" stroke-width="3"/>
<line x1="32.9052" y1="28.5223" x2="75.0167" y2="28.5223" stroke="black" stroke-width="3"/>
<rect x="75.1909" y="7.21643" width="51.5336" height="51.5336" rx="25.7668" stroke="black" stroke-width="2.5"/>
<rect x="76.9125" y="1.40607" width="51.5336" height="51.5336" rx="25.7668" stroke="black" stroke-width="2.5"/>
<path d="M96.8602 42.5603L96.9188 42.6263L96.9848 42.6849C97.5521 43.1892 98.2559 43.2933 98.7846 43.2933H103.432C103.938 43.2933 104.693 43.1984 105.267 42.6244C105.833 42.0584 105.965 41.3276 105.965 40.7605V28.1748H108.682C109.188 28.1748 109.943 28.0799 110.517 27.506C111.083 26.9399 111.215 26.2091 111.215 25.642V22.1708C111.215 21.6422 111.1 20.8964 110.518 20.335C109.956 19.7531 109.211 19.6381 108.682 19.6381H93.5347C92.9676 19.6381 92.2368 19.7696 91.6708 20.3356L91.6708 20.3356C91.0968 20.9096 91.002 21.6643 91.002 22.1708V25.642C91.002 26.1708 91.1061 26.8745 91.6103 27.4418L91.669 27.5078L91.7349 27.5664C92.3022 28.0707 93.006 28.1748 93.5347 28.1748H96.2518V40.7605C96.2518 41.2892 96.3559 41.993 96.8602 42.5603Z" stroke="black" stroke-width="3"/>
<circle cx="40.0427" cy="10.751" r="3.99628" stroke="black" stroke-width="2"/>
<path d="M2.00014 29.3086C2.00014 21.1008 8.80761 14.3922 17.2734 14.3922C25.7391 14.3922 32.5466 21.1008 32.5466 29.3086C32.5466 37.5164 25.7391 44.2249 17.2734 44.2249C8.80762 44.2249 2.00014 37.5164 2.00014 29.3086Z" stroke="black" stroke-width="3"/>
<circle cx="183.935" cy="29.3086" r="7.06505" stroke="black" stroke-width="3"/>
</svg>
