<svg width="32" height="32" xmlns="http://www.w3.org/2000/svg">

 <g>
  <title>background</title>
  <rect fill="none" id="canvas_background" height="402" width="582" y="-1" x="-1"/>
 </g>
 <g>
  <title>Layer 1</title>
  <path id="svg_1" fill="#565656" d="m28.994,2l-8.663,0c-0.556,0 -1.006,0.45 -1.006,1.006s0.45,1.006 1.006,1.006l6.512,0l-11.731,11.744c-0.188,0.188 -0.294,0.444 -0.294,0.712s0.106,0.525 0.294,0.712s0.444,0.294 0.713,0.294c0.269,0 0.525,-0.106 0.713,-0.294l11.444,-11.444l0,5.931c0,0.556 0.45,1.006 1.006,1.006s1.006,-0.45 1.006,-1.006l0,-8.662c0.006,-0.556 -0.444,-1.006 -1,-1.006l0,0l0,0.001z"/>
  <path id="svg_2" fill="#565656" d="m23.012,17.156c-0.556,0 -1.006,0.45 -1.006,1.006l0,9.819l-17.988,0l0,-17.988l9.819,0c0.556,0 1.006,-0.45 1.006,-1.006s-0.45,-1.006 -1.006,-1.006l-10.831,0c-0.556,0 -1.006,0.45 -1.006,1.006l0,20.006c0,0.556 0.45,1.006 1.006,1.006l20.006,0c0.556,0 1.006,-0.45 1.006,-1.006l0,-10.831c0.006,-0.55 -0.45,-1.006 -1.006,-1.006z"/>
 </g>
</svg>